<?xml version="1.0" encoding="utf-8"?>
<!-- Generator: Adobe Illustrator 25.4.3, SVG Export Plug-In . SVG Version: 6.00 Build 0)  -->
<svg version="1.1" id="Layer_1" xmlns="http://www.w3.org/2000/svg" xmlns:xlink="http://www.w3.org/1999/xlink" x="0px" y="0px"
	 viewBox="0 0 43.7 40.6" style="enable-background:new 0 0 43.7 40.6;" xml:space="preserve">
<style type="text/css">
	.st0{fill:#FABA00;}
</style>
<g>
	<path class="st0" d="M1.8,18.3l8.3,6c0.9,0.7,1.3,1.9,1,3L7.9,37c-0.8,2.5,2,4.5,4.1,3l8.3-6c0.9-0.7,2.2-0.7,3.2,0l8.3,6
		c2.1,1.5,5-0.5,4.1-3l-3.2-9.7c-0.4-1.1,0-2.3,1-3l8.3-6c2.1-1.5,1-4.9-1.6-4.9H30.2c-1.2,0-2.2-0.8-2.6-1.9l-3.2-9.7
		c-0.8-2.5-4.3-2.5-5.1,0l-3.2,9.7c-0.4,1.1-1.4,1.9-2.6,1.9H3.4C0.8,13.4-0.3,16.8,1.8,18.3L1.8,18.3z"/>
</g>
</svg>
