<?xml version="1.0" encoding="utf-8"?>
<!-- Generator: Adobe Illustrator 25.4.3, SVG Export Plug-In . SVG Version: 6.00 Build 0)  -->
<svg version="1.1" id="Layer_1" xmlns="http://www.w3.org/2000/svg" xmlns:xlink="http://www.w3.org/1999/xlink" x="0px" y="0px"
	 viewBox="0 0 700 700" style="enable-background:new 0 0 700 700;" xml:space="preserve">
<style type="text/css">
	.st0{fill:#1B215C;}
</style>
<g>
	<path class="st0" d="M641.8,379h-350L233.3,87.5h466.5L641.8,379z"/>
	<path class="st0" d="M320.3,627c0,40.5-32.5,73-73,73s-73-32.5-73-73c0-40.5,32.5-73,73-73S320.3,586.5,320.3,627"/>
	<path class="st0" d="M641.8,627c0,40.5-32.5,73-73,73c-40.5,0-73-32.5-73-73c0-40.5,32.5-73,73-73C609.3,554,641.8,586.5,641.8,627
		"/>
	<path class="st0" d="M641.8,437.5V525H175.3L87.8,87.5H0.3V0h146l87.5,437.5H641.8z"/>
</g>
<g id="r0WOnt.tif">
	
		<image style="overflow:visible;enable-background:new    ;" width="680" height="418" id="Layer_0" xlink:href="928B42AF9B6090A0.png"  transform="matrix(0.4983 0 0 0.4983 -485.2141 228.3602)">
	</image>
</g>
</svg>
