<?xml version="1.0" encoding="utf-8"?>
<!-- Generator: Adobe Illustrator 25.4.3, SVG Export Plug-In . SVG Version: 6.00 Build 0)  -->
<svg version="1.1" id="Layer_1" xmlns="http://www.w3.org/2000/svg" xmlns:xlink="http://www.w3.org/1999/xlink" x="0px" y="0px"
	 viewBox="0 0 700 700" style="enable-background:new 0 0 700 700;" xml:space="preserve">
<style type="text/css">
	.st0{fill:#FFFFFF;}
</style>
<g>
	<path class="st0" d="M171.1,349.4c0,63.9,34.2,122.9,89.4,154.9c55.4,31.9,123.6,31.9,178.9,0s89.4-91,89.4-154.9
		C519,111.7,181,111.5,171.1,349.4L171.1,349.4z M226.1,349.4c0-44.3,23.6-85.1,61.9-107.2c38.3-22.1,85.6-22.1,123.8,0
		c38.3,22.1,61.9,63.1,61.9,107.2C467.1,514.2,233.3,514.3,226.1,349.4L226.1,349.4z"/>
	<path class="st0" d="M536,0H164c-43.5,0-85.1,17.4-116,48.1S0,120.6,0,164V536c0,43.5,17.4,85.1,48.1,116
		c30.7,30.7,72.5,48.1,116,48.1H536c43.5,0,85.1-17.4,116-48.1c30.8-30.7,48.1-72.5,48.1-116V164c0-43.5-17.4-85.1-48.1-116
		C621.1,17.4,579.4,0,536,0L536,0z M645.6,536c0,29-11.5,56.9-32.1,77.5C592.9,634,565,645.6,536,645.6H164
		c-29,0-56.9-11.5-77.5-32.1S54.4,565,54.4,536V164c0-29,11.5-56.9,32.1-77.5S135,54.4,164,54.4H536c29,0,56.9,11.5,77.5,32.1
		s32.1,48.5,32.1,77.5L645.6,536L645.6,536z"/>
	<path class="st0" d="M544.4,124.4c-8.2,0-16.1,3.3-21.9,9.2c-5.8,5.8-9.2,13.7-9.2,21.9s3.3,16.1,9.2,21.9
		c5.8,5.8,13.8,9.2,21.9,9.2c8.2,0,16.1-3.3,21.9-9.2c5.8-5.8,9.2-13.7,9.2-21.9s-3.3-16.1-9.2-21.9
		C560.6,127.8,552.6,124.4,544.4,124.4L544.4,124.4z"/>
</g>
</svg>
