<?xml version="1.0" encoding="utf-8"?>
<!-- Generator: Adobe Illustrator 25.4.3, SVG Export Plug-In . SVG Version: 6.00 Build 0)  -->
<svg version="1.1" id="Layer_1" xmlns="http://www.w3.org/2000/svg" xmlns:xlink="http://www.w3.org/1999/xlink" x="0px" y="0px"
	 viewBox="0 0 700 700" style="enable-background:new 0 0 700 700;" xml:space="preserve">
<style type="text/css">
	.st0{fill-rule:evenodd;clip-rule:evenodd;fill:#1B215C;}
</style>
<path class="st0" d="M132.7,410h25.2c20.1,0,37.4,5,54.2,16.5C252.3,453,299.5,468,350,468s97.7-15,137.9-41.5
	c16.8-11.4,34.1-16.5,54.2-16.5h25.2c72.9,0,132.7,64,132.7,142v148H0V552.6C0,474,59.8,410,132.7,410L132.7,410z M350,0
	c-96.3,0-174.3,83.5-174.3,186.5S253.7,373,350,373s174.3-83.5,174.3-186.5S446.3,0,350,0L350,0z"/>
<circle class="st0" cx="350" cy="186.5" r="186.5"/>
</svg>
