<?xml version="1.0" encoding="utf-8"?>
<!-- Generator: Adobe Illustrator 25.4.3, SVG Export Plug-In . SVG Version: 6.00 Build 0)  -->
<svg version="1.1" id="Layer_1" xmlns="http://www.w3.org/2000/svg" xmlns:xlink="http://www.w3.org/1999/xlink" x="0px" y="0px"
	 viewBox="0 0 700 700" style="enable-background:new 0 0 700 700;" xml:space="preserve">
<style type="text/css">
	.st0{fill-rule:evenodd;clip-rule:evenodd;fill:#1B215C;}
</style>
<g>
	<path class="st0" d="M132.7,406.1h25.2c20.1,0,37.4,4.7,54.2,15.4c40.2,24.8,87.4,38.8,137.9,38.8s97.7-14,137.9-38.8
		c16.8-10.7,34.1-15.4,54.2-15.4h25.2c72.9,0,132.7,59.8,132.7,132.7v138.3H0V539.3C0,465.9,59.8,406.1,132.7,406.1L132.7,406.1z
		 M350,22.9c-96.3,0-174.3,78-174.3,174.3c0,96.3,78,174.3,174.3,174.3s174.3-78,174.3-174.3S446.3,22.9,350,22.9L350,22.9z"/>
</g>
</svg>
