<?xml version="1.0" encoding="utf-8"?>
<!-- Generator: Adobe Illustrator 25.4.3, SVG Export Plug-In . SVG Version: 6.00 Build 0)  -->
<svg version="1.1" id="Layer_1" xmlns="http://www.w3.org/2000/svg" xmlns:xlink="http://www.w3.org/1999/xlink" x="0px" y="0px"
	 viewBox="0 0 700 700" style="enable-background:new 0 0 700 700;" xml:space="preserve">
<style type="text/css">
	.st0{fill:#1B215C;}
</style>
<g>
	<path class="st0" d="M286,571.3c64,0,126-21.5,176-61l189.5,189.5l48.5-48.5L510.5,461.8c53.5-68.5,73-157,53-241.5
		s-77-155-155.5-192.5s-169.5-36.5-247.5,1c-78,38-134.5,109.5-153.5,194c-19,84.5,1.5,173.5,55.5,241
		C117,532.3,199,571.8,286,571.3L286,571.3z M286,69.2c57.5,0,112.5,23,153.5,63.5s63.5,96,63.5,153.5s-23,112.5-63.5,153.5
		c-41,40.5-96,63.5-153.5,63.5s-112.5-23-153.5-63.5c-40.5-41-63.5-96-63.5-153.5s23-112.5,63.5-153.5S228.5,69.2,286,69.2z"/>
</g>
</svg>
